<?xml version="1.0" encoding="utf-8"?>
<!-- Generator: Adobe Illustrator 15.1.0, SVG Export Plug-In . SVG Version: 6.00 Build 0)  -->
<!DOCTYPE svg PUBLIC "-//W3C//DTD SVG 1.1//EN" "http://www.w3.org/Graphics/SVG/1.1/DTD/svg11.dtd">
<svg version="1.1" id="Layer_1" xmlns="http://www.w3.org/2000/svg" xmlns:xlink="http://www.w3.org/1999/xlink" x="0px" y="0px"
	 width="715px" height="75.141px" viewBox="-16.11 82.641 715 75.141" enable-background="new -16.11 82.641 715 75.141"
	 xml:space="preserve">
<g>
	<path fill="#6E5D84" d="M39.365,109.035c8.027,0,14.538,6.513,14.538,14.539c0,8.028-6.51,14.538-14.538,14.538
		c-8.029,0-14.539-6.51-14.539-14.538C24.825,115.548,31.333,109.035,39.365,109.035 M39.365,100.049
		c-12.972,0-23.525,10.553-23.525,23.525c0,12.971,10.553,23.526,23.525,23.526c12.971,0,23.525-10.556,23.525-23.526
		C62.89,110.602,52.335,100.049,39.365,100.049L39.365,100.049z"/>
	<g>
		<path fill="#6E5D84" d="M15.54,148.333c1.457,0,2.644,1.189,2.644,2.643v4.165c0,1.452-1.188,2.642-2.644,2.642H7.151
			c-1.455,0-3.835,0-5.288,0H0.828c-1.453,0-8.479,0-8.479,0c-4.053,0-8.46-2.368-8.46-8.987v-8.788c0-1.456,0-3.836,0-5.288
			v-21.013c0-1.457,1.191-2.645,2.644-2.645h4.164c1.453,0,2.644,1.189,2.644,2.645v21.013c0,1.454,0,3.416,0,4.362
			c0,0.945,0,2.906,0,4.36v2.246c0,1.456,1.188,2.646,2.644,2.646h2.202c1.453,0,3.47,0,4.48,0c1.012,0,3.028,0,4.483,0H15.54z"/>
	</g>
	<path fill="#6E5D84" d="M52.539,93.573c-0.865,0-1.712-0.423-2.22-1.205l-3.448-5.313H32.075l-3.706,5.375
		c-0.827,1.199-2.475,1.505-3.677,0.677c-1.198-0.832-1.504-2.476-0.675-3.681l4.493-6.519c0.494-0.718,1.307-1.143,2.176-1.143
		h17.622c0.896,0,1.729,0.452,2.218,1.201l4.229,6.521c0.795,1.227,0.444,2.863-0.778,3.655
		C53.53,93.435,53.031,93.573,52.539,93.573z"/>
</g>
<g>
	<g>
		<path fill="#FFFFFF" d="M114.203,114.939h-12.861v29.495h5.898v-12.19h6.98c6.87,0,10.305-2.938,10.305-8.81
			C124.528,117.773,121.085,114.939,114.203,114.939z M115.498,126.738h-8.258v-6.277h8.32c2.333,0.083,3.532,1.094,3.599,3.031
			C119.093,125.615,117.874,126.695,115.498,126.738z M175.189,126.738h-13.746v-11.801h-5.898v29.496h5.898v-12.191h13.746v12.191
			l5.901-0.021v-29.491h-5.901V126.738z M228.011,114.939c-4.194,0-7.703,1.408-10.522,4.228c-2.818,2.815-4.226,6.326-4.226,10.522
			c0,4.18,1.409,7.684,4.226,10.512c2.819,2.82,6.328,4.233,10.522,4.233c4.195,0,7.701-1.409,10.522-4.225
			c2.818-2.818,4.228-6.327,4.228-10.519c0-4.198-1.41-7.707-4.228-10.523C235.712,116.347,232.206,114.939,228.011,114.939z
			 M234.404,136.275c-1.641,1.771-3.763,2.651-6.374,2.651c-2.635,0-4.773-0.881-6.41-2.651c-1.641-1.771-2.459-3.965-2.459-6.586
			c0-2.626,0.819-4.821,2.459-6.59c1.637-1.77,3.761-2.655,6.373-2.655c2.633,0,4.772,0.886,6.411,2.655
			c1.64,1.769,2.458,3.96,2.458,6.59C236.859,132.31,236.043,134.504,234.404,136.275z M271.714,120.444h9.835v23.989h5.896v-23.989
			h9.833v-5.507h-25.565V120.444z M340.973,114.939c-4.197,0-7.701,1.408-10.521,4.228c-2.82,2.815-4.227,6.326-4.227,10.522
			c0,4.18,1.406,7.684,4.227,10.512c2.819,2.82,6.327,4.233,10.521,4.233c4.196,0,7.699-1.409,10.522-4.225
			c2.817-2.818,4.223-6.327,4.223-10.519c0-4.198-1.405-7.707-4.223-10.523C348.672,116.347,345.169,114.939,340.973,114.939z
			 M347.365,136.275c-1.641,1.771-3.764,2.651-6.373,2.651c-2.633,0-4.77-0.881-6.409-2.651c-1.641-1.771-2.463-3.965-2.463-6.586
			c0-2.626,0.824-4.821,2.463-6.59c1.64-1.77,3.76-2.655,6.371-2.655c2.635,0,4.771,0.886,6.411,2.655
			c1.639,1.769,2.458,3.96,2.458,6.59C349.823,132.31,349.003,134.504,347.365,136.275z M400.788,120.818
			c2.599,0,4.901,0.786,6.901,2.362l3.936-4.312c-3.019-2.619-6.63-3.932-10.837-3.932c-4.17,0-7.661,1.412-10.484,4.235
			c-2.813,2.829-4.231,6.311-4.244,10.451c0,4.238,1.413,7.762,4.239,10.575c2.822,2.81,6.319,4.222,10.489,4.234
			c4.224,0,7.833-1.307,10.837-3.934v-13.763h-9.835v5.505l3.938-0.019v5.055c-1.143,0.836-2.774,1.256-4.896,1.256
			c-2.651,0-4.784-0.805-6.412-2.419c-1.631-1.616-2.446-3.787-2.461-6.527c0-2.555,0.812-4.656,2.43-6.294
			C396.007,121.659,398.139,120.831,400.788,120.818z M468.236,123.435c0-5.662-3.44-8.496-10.321-8.496h-12.862v29.495h5.897
			v-12.19h5.387l7.059,12.19h6.769l-7.359-12.86C466.428,130.407,468.236,127.698,468.236,123.435z M459.212,126.738h-8.259v-6.277
			h8.316c2.334,0.083,3.533,1.094,3.599,3.031C462.803,125.615,461.579,126.695,459.212,126.738z M511.722,114.939l-11.804,29.495
			h6.294l1.771-4.522h13.373l1.766,4.522l6.277-0.021l-11.786-29.477h-5.892V114.939z M510.341,134.014l4.484-11.213l4.363,11.213
			H510.341z M573.312,114.939h-12.858v29.495h5.892v-12.19h6.987c6.868,0,10.303-2.938,10.303-8.81
			C583.635,117.773,580.194,114.939,573.312,114.939z M574.61,126.738h-8.265v-6.277h8.324c2.335,0.083,3.531,1.094,3.597,3.031
			C578.2,125.615,576.985,126.695,574.61,126.738z M634.299,126.738h-13.748v-11.801h-5.901v29.496h5.901v-12.191h13.748v12.191
			l5.896-0.021v-29.491h-5.896V126.738z M692.123,114.939l-7,9.633l-6.841-9.633h-6.927l10.815,14.752v14.747h5.901v-14.747
			l10.817-14.752H692.123z"/>
	</g>
</g>
</svg>
